<svg width="662" height="662" viewBox="0 0 662 662" fill="none" xmlns="http://www.w3.org/2000/svg">
<path d="M592.66 129.867C608.286 150.018 621.315 172.179 632.417 195.555L331.249 417.504L204.817 338.075V243.062L330.621 321.82L592.66 129.867Z" fill="#21A038"/>
<path d="M76.4149 331.582C76.4149 327.015 76.4149 323.119 77.0852 318.553L0.840237 314.657C0.840237 319.852 0.169951 325.717 0.169951 330.911C0.151578 374.334 8.72198 417.332 25.3878 457.429C42.0536 497.526 66.4857 533.931 97.2776 564.548L151.361 510.506C127.575 487.182 108.692 459.338 95.8209 428.612C82.9504 397.885 76.3524 364.895 76.4149 331.582Z" fill="url(#paint0_linear_2435_89)"/>
<path d="M330.621 77.7529C335.187 77.7529 339.083 77.7529 343.649 78.4231L347.587 2.30386C342.351 2.30386 336.486 1.63358 331.249 1.63358C287.788 1.6142 244.749 10.1706 204.6 26.8125C164.451 43.4544 127.981 67.8547 97.2776 98.6155L151.361 152.615C174.797 128.891 202.711 110.057 233.483 97.2055C264.255 84.3544 297.273 77.7423 330.621 77.7529Z" fill="url(#paint1_linear_2435_89)"/>
<path d="M330.621 585.368C326.054 585.368 322.158 585.368 317.592 584.698L313.696 660.859C318.891 660.859 324.756 661.488 329.95 661.488C373.416 661.518 416.46 652.971 456.617 636.336C496.773 619.701 533.252 595.306 563.964 564.548L509.88 510.506C486.574 534.402 458.684 553.349 427.883 566.212C397.081 579.076 364 585.591 330.621 585.368Z" fill="url(#paint2_linear_2435_89)"/>
<path d="M474.02 122.075L538.535 74.5271C479.655 27.0038 406.286 1.05929 330.621 1.00513V77.1244C381.831 77.4463 431.774 93.1289 474.02 122.075Z" fill="url(#paint3_linear_2435_89)"/>
<path d="M661.742 331.582C661.742 311.431 659.773 291.867 656.547 272.345L585.497 325.088V331.582C585.523 367.092 578.042 402.207 563.545 434.624C549.048 467.04 527.862 496.026 501.376 519.68L552.904 576.236C587.164 545.349 614.555 507.612 633.304 465.467C652.053 423.322 661.741 377.709 661.742 331.582Z" fill="#21A038"/>
<path d="M330.621 585.41C295.085 585.44 259.942 577.975 227.487 563.501C195.032 549.028 165.995 527.872 142.271 501.415L85.5476 552.86C116.485 587.156 154.294 614.557 196.518 633.279C238.741 652.002 284.433 661.627 330.621 661.53V585.41Z" fill="url(#paint4_linear_2435_89)"/>
<path d="M160.494 143.525L109.008 86.8855C74.6804 117.727 47.244 155.461 28.49 197.625C9.73595 239.789 0.0859177 285.435 0.169978 331.582H76.4149C76.4519 296.085 83.9569 260.993 98.4424 228.587C112.928 196.18 134.07 167.184 160.494 143.483V143.525Z" fill="url(#paint5_linear_2435_89)"/>
<defs>
<linearGradient id="paint0_linear_2435_89" x1="9178.36" y1="4143.68" x2="5128.32" y2="2336.08" gradientUnits="userSpaceOnUse">
<stop offset="0.144" stop-color="#F2E913"/>
<stop offset="0.304" stop-color="#E7E518"/>
<stop offset="0.582" stop-color="#CADB26"/>
<stop offset="0.891" stop-color="#A3CD39"/>
</linearGradient>
<linearGradient id="paint1_linear_2435_89" x1="2333.81" y1="1404.15" x2="24413.6" y2="104.739" gradientUnits="userSpaceOnUse">
<stop offset="0.059" stop-color="#0FA8E0"/>
<stop offset="0.538" stop-color="#0099F9"/>
<stop offset="0.923" stop-color="#0291EB"/>
</linearGradient>
<linearGradient id="paint2_linear_2435_89" x1="-146.923" y1="1879.49" x2="24852.9" y2="1007.08" gradientUnits="userSpaceOnUse">
<stop offset="0.123" stop-color="#A3CD39"/>
<stop offset="0.285" stop-color="#86C339"/>
<stop offset="0.869" stop-color="#21A038"/>
</linearGradient>
<linearGradient id="paint3_linear_2435_89" x1="-1281.33" y1="776.384" x2="20078.6" y2="1793.8" gradientUnits="userSpaceOnUse">
<stop offset="0.057" stop-color="#0291EB"/>
<stop offset="0.79" stop-color="#0C8ACB"/>
</linearGradient>
<linearGradient id="paint4_linear_2435_89" x1="2080.39" y1="1516.46" x2="25322" y2="2857.23" gradientUnits="userSpaceOnUse">
<stop offset="0.132" stop-color="#F2E913"/>
<stop offset="0.298" stop-color="#EBE716"/>
<stop offset="0.531" stop-color="#D9E01F"/>
<stop offset="0.802" stop-color="#BBD62D"/>
<stop offset="0.983" stop-color="#A3CD39"/>
</linearGradient>
<linearGradient id="paint5_linear_2435_89" x1="5969.19" y1="4127.02" x2="10723.9" y2="2217.25" gradientUnits="userSpaceOnUse">
<stop offset="0.07" stop-color="#A3CD39"/>
<stop offset="0.26" stop-color="#81C55F"/>
<stop offset="0.922" stop-color="#0FA8E0"/>
</linearGradient>
</defs>
</svg>
