<?xml version="1.0" encoding="utf-8"?>
<!-- Generator: Adobe Illustrator 24.0.2, SVG Export Plug-In . SVG Version: 6.00 Build 0)  -->
<svg version="1.0" id="Layer_1" xmlns="http://www.w3.org/2000/svg" xmlns:xlink="http://www.w3.org/1999/xlink" x="0px" y="0px"
	 viewBox="0 0 300 280" enable-background="new 0 0 300 280" xml:space="preserve">
<g id="vtb_ru" transform="scale(24.720557,24.720557)">
	<g id="Group-5">
		<g id="Group-3-Copy">
			<path id="Fill-1" fill-rule="evenodd" clip-rule="evenodd" fill="#179EDA" d="M4.57,4.32H2.78L2.65,4.67h1.79L4.57,4.32z
				 M4.37,4.85H2.58L2.45,5.2h1.79L4.37,4.85L4.37,4.85z M4.18,5.38H2.39L2.26,5.73h1.79L4.18,5.38L4.18,5.38z"/>
			<path id="Fill-2" fill-rule="evenodd" clip-rule="evenodd" fill="#26336F" d="M9.49,5.88L9.49,5.88C9.57,5.91,9.65,5.96,9.69,6
				c0.13,0.1,0.18,0.24,0.18,0.42c0,0.29-0.15,0.5-0.41,0.57C9.39,7,9.3,7.01,9.15,7.01H8.38V4.88h0.68c0.14,0,0.24,0.01,0.32,0.03
				c0.25,0.07,0.41,0.24,0.41,0.51c0,0.14-0.05,0.27-0.14,0.35C9.62,5.8,9.57,5.84,9.49,5.88L9.49,5.88z M8.81,6.1v0.56H9.1
				c0.09,0,0.17-0.01,0.23-0.06c0.06-0.06,0.08-0.13,0.08-0.22c0-0.07-0.02-0.14-0.06-0.18C9.3,6.12,9.22,6.1,9.09,6.1H8.81
				L8.81,6.1z M8.81,5.73h0.24c0.07,0,0.11,0,0.15-0.01c0.1-0.03,0.16-0.12,0.16-0.24c0-0.14-0.07-0.21-0.16-0.24
				C9.15,5.23,9.11,5.23,9.03,5.23H8.81V5.73L8.81,5.73z M7.15,7.01V5.24H6.54V4.88h1.71L8.13,5.24H7.58v1.77H7.15z M5.35,7.01
				L4.68,4.88h0.47l0.26,0.93c0.08,0.28,0.12,0.42,0.17,0.65c0.05-0.22,0.08-0.33,0.16-0.64L6,4.88h0.45L5.77,7.01H5.35z"/>
		</g>
	</g>
</g>
</svg>
