<?xml version="1.0" encoding="UTF-8"?>
<svg id="_Слой_1" data-name="Слой 1" xmlns="http://www.w3.org/2000/svg" width="500" height="200" viewBox="0 0 500 200">
  <g id="ya-pay">
    <g id="ya-icon">
      <circle id="circle" cx="100" cy="100" r="100" style="fill: #ff3815; stroke-width: 0px;"/>
      <path id="ya" d="M85.66,39.71c-9.79,2.8-18.76,9.04-23.87,17.91-5.09,8.97-5.39,19.74-4.21,29.73,1.46,11.61,8.73,22.42,19.2,27.86-7.66,16.72-15.16,33.52-22.92,50.2,8.52-.03,17.04.04,25.56-.04,6.45-14.98,13.06-29.9,19.64-44.83,4.71.03,9.43,0,14.14.02,0,14.91-.01,29.82.01,44.72,7.74.02,15.49-.02,23.23.03.02-43.12.01-86.26.01-129.38-16.94.46-34.42-1.78-50.79,3.77ZM113.2,101.67c-8.87.1-18.89.25-26.03-5.84-5.56-4.29-6.85-11.78-6.87-18.37-.09-6.39,1.48-13.51,6.87-17.58,7.29-5.81,17.13-6.03,26.03-5.81,0,15.87.01,31.73,0,47.59Z" style="fill: #fff; stroke-width: 0px;"/>
    </g>
    <g id="pay">
      <path id="p" d="M317.14,67.21c-1.87-3.97-4.26-6.8-7.85-9.3-3.63-2.53-8.71-4.66-13.98-5.86-5.33-1.22-11.29-1.6-18.2-1.6h-31.35v100.47h20.15l-.02-35.18,10.93.03c6.62,0,12.65-.36,17.96-1.71,5.26-1.34,10.05-3.25,13.73-6.02,3.66-2.75,6.2-5.9,8.17-10.17,1.98-4.29,3.35-9.72,3.35-15.65s-1.01-11-2.9-15ZM294.37,95.58c-3.71,2.41-9.21,3.63-16.35,3.63l-12.11-.03v-31.93l12.11-.04c14.61,0,21.72,5.16,21.72,15.76,0,6.05-1.81,10.29-5.37,12.6Z" style="stroke-width: 0px;"/>
      <path id="a" d="M357.19,50.46l-35.4,100.45h17l8.54-24.35,40.87-.03,8.61,24.38h20.27l-35.61-100.47-24.28.02ZM353.27,109.85l14.7-41.29,14.54,41.29h-29.24Z" style="stroke-width: 0px;"/>
      <polygon id="y" points="481.27 50.47 458.62 91.27 436.71 50.51 414.44 50.49 447.29 108.68 447.29 150.91 467.58 150.91 467.58 108.86 500 50.47 481.27 50.47" style="stroke-width: 0px;"/>
    </g>
  </g>
</svg>